<?xml version="1.0" encoding="UTF-8"?>
<svg version="1.1" xmlns="http://www.w3.org/2000/svg" width="120" height="111">
<path d="M0 0 C39.6 0 79.2 0 120 0 C120 36.63 120 73.26 120 111 C80.4 111 40.8 111 0 111 C0 74.37 0 37.74 0 0 Z " fill="#1B1C1C" transform="translate(0,0)"/>
<path d="M0 0 C1.41100983 0.00022659 1.41100983 0.00022659 2.8505249 0.00045776 C4.36165863 0.01594162 4.36165863 0.01594162 5.90332031 0.03173828 C7.45965179 0.03598312 7.45965179 0.03598312 9.04742432 0.04031372 C12.35888232 0.05150213 15.67006915 0.07660451 18.98144531 0.10205078 C21.22753515 0.1120823 23.47362924 0.12120785 25.71972656 0.12939453 C31.22372522 0.15143708 36.72756589 0.18490146 42.23144531 0.22705078 C42.23144531 2.53705078 42.23144531 4.84705078 42.23144531 7.22705078 C39.26144531 7.22705078 36.29144531 7.22705078 33.23144531 7.22705078 C33.23144531 8.87705078 33.23144531 10.52705078 33.23144531 12.22705078 C35.05675781 12.13423828 35.05675781 12.13423828 36.91894531 12.03955078 C40.86555469 12.0534718 43.08788195 12.69473585 46.23144531 15.22705078 C51.38549815 20.95377615 51.58361059 25.5686159 51.50878906 33.05908203 C51.01694296 38.67721146 48.19072218 41.47912487 44.16894531 45.03955078 C39.73355182 48.34250338 35.6486669 48.92411974 30.23144531 48.22705078 C25.84901112 46.76034901 23.15219517 44.56556546 20.79394531 40.60205078 C19.23144531 37.22705078 19.23144531 37.22705078 19.23144531 35.22705078 C20.88144531 35.22705078 22.53144531 35.22705078 24.23144531 35.22705078 C24.23144531 31.59705078 24.23144531 27.96705078 24.23144531 24.22705078 C22.58144531 24.22705078 20.93144531 24.22705078 19.23144531 24.22705078 C20.98144531 18.47705078 20.98144531 18.47705078 23.23144531 16.22705078 C23.69150877 14.02454086 23.69150877 14.02454086 23.85644531 11.60205078 C24.04207031 9.43642578 24.04207031 9.43642578 24.23144531 7.22705078 C18.95144531 7.22705078 13.67144531 7.22705078 8.23144531 7.22705078 C8.23144531 20.09705078 8.23144531 32.96705078 8.23144531 46.22705078 C5.26144531 46.22705078 2.29144531 46.22705078 -0.76855469 46.22705078 C-0.76855469 33.35705078 -0.76855469 20.48705078 -0.76855469 7.22705078 C-3.73855469 7.22705078 -6.70855469 7.22705078 -9.76855469 7.22705078 C-9.51855469 4.85205078 -9.51855469 4.85205078 -8.76855469 2.22705078 C-5.82645465 0.29260435 -3.47498126 -0.01868269 0 0 Z " fill="#308764" transform="translate(37.7685546875,30.77294921875)"/>
<path d="M0 0 C2.75 -0.3125 2.75 -0.3125 6 0 C9.10897872 2.71197812 9.91873573 4.34243044 10.42578125 8.4453125 C10.38839844 9.65960938 10.35101563 10.87390625 10.3125 12.125 C10.28800781 13.34445313 10.26351562 14.56390625 10.23828125 15.8203125 C10 19 10 19 9 22 C6.69 22.33 4.38 22.66 2 23 C-0.13604308 19.79593538 -0.24208908 19.00399253 -0.1953125 15.33203125 C-0.18564453 13.99301758 -0.18564453 13.99301758 -0.17578125 12.62695312 C-0.15902344 11.69818359 -0.14226562 10.76941406 -0.125 9.8125 C-0.11597656 8.87212891 -0.10695313 7.93175781 -0.09765625 6.96289062 C-0.07409056 4.64167032 -0.04119116 2.32096356 0 0 Z " fill="#19211E" transform="translate(71,48)"/>
</svg>
